<?xml version="1.0" encoding="utf-8"?>
<!-- Generator: Adobe Illustrator 28.4.1, SVG Export Plug-In . SVG Version: 6.00 Build 0)  -->
<svg version="1.1" id="Capa_1" xmlns="http://www.w3.org/2000/svg" xmlns:xlink="http://www.w3.org/1999/xlink" x="0px" y="0px"
	 viewBox="0 0 1080 1080" style="enable-background:new 0 0 1080 1080;" xml:space="preserve">
<style type="text/css">
	.st0{fill:#A3355E;}
</style>
<path class="st0" d="M941.28,663.06H182.61c-42.5,0-76.96-34.46-76.96-76.96V348.96c0-42.5,34.46-76.96,76.96-76.96h758.67
	c42.5,0,76.96,34.46,76.96,76.96V586.1C1018.23,628.6,983.78,663.06,941.28,663.06z"/>
<path class="st0" d="M731.16,899.24h-24.85c-26.19,0-47.42-21.23-47.42-47.42V628.05c0-26.19,21.23-47.42,47.42-47.42h24.85
	c26.19,0,47.42,21.23,47.42,47.42v223.76C778.59,878,757.35,899.24,731.16,899.24z"/>
<path class="st0" d="M400.1,899.24h-24.85c-26.19,0-47.42-21.23-47.42-47.42V628.05c0-26.19,21.23-47.42,47.42-47.42h24.85
	c26.19,0,47.42,21.23,47.42,47.42v223.76C447.53,878,426.3,899.24,400.1,899.24z"/>
</svg>
