<?xml version="1.0" encoding="utf-8"?>
<!-- Generator: Adobe Illustrator 28.4.1, SVG Export Plug-In . SVG Version: 6.00 Build 0)  -->
<svg version="1.1" id="Capa_1" xmlns="http://www.w3.org/2000/svg" xmlns:xlink="http://www.w3.org/1999/xlink" x="0px" y="0px"
	 viewBox="0 0 1080 1080" style="enable-background:new 0 0 1080 1080;" xml:space="preserve">
<style type="text/css">
	.st0{fill:#FFFFFF;}
	.st1{fill:#9A355A;}
	.st2{fill:#9A355A;stroke:#9A355A;stroke-width:12;stroke-miterlimit:10;}
</style>
<g>
	<path class="st0" d="M908.07,426.5c0,63.21,0,189.76,0,189.76s-0.47,150.16-0.47,225.25c0,15.17-0.01,30.34-0.64,45.52v6.26
		c0,0,38.88,0,57.88,0c0-2.27,0-4.25,0-6.23c0-60.65,0.01-121.3,0.01-181.96c0-124.26-0.01-248.52-0.01-372.78
		c0-39.97,0-79.95-0.01-119.92c-18.94-0.15-37.87-0.51-56.7-1.3C908.06,282.9,908.07,354.7,908.07,426.5z"/>
	<path class="st1" d="M258.91,874.88h608.47c22.8,0,41.28-18.48,41.28-41.28V732.76c0-22.8-18.48-41.28-41.28-41.28H258.91
		c-22.8,0-41.28,18.48-41.28,41.28V833.6C217.63,856.39,236.11,874.88,258.91,874.88z"/>
	<path class="st2" d="M964.91,894.3h-80.59c-6.6,0-12-5.4-12-12V231.17c0-6.6,5.4-12,12-12h80.59c6.6,0,12,5.4,12,12V882.3
		C976.91,888.9,971.51,894.3,964.91,894.3z"/>
	<path class="st2" d="M964.94,374.89c0-1.59,0.85-6.43,2.23-13.23c0.13-34.49-0.15-68.97-0.99-103.46l-85.31-37.54
		c0,0-258.09,45.7,9.34,446.4l71.27-48.59c2.37-77.86,4.87-155.72,5.54-233.58C965.7,379.4,964.94,375.87,964.94,374.89z"/>
</g>
<path class="st1" d="M262.31,900.47h80.71c5.65,0,10.24-4.58,10.24-10.24v-24.58c0-5.65-4.58-10.24-10.24-10.24h-80.71
	c-5.65,0-10.24,4.58-10.24,10.24v24.58C252.07,895.89,256.65,900.47,262.31,900.47z"/>
</svg>
