<?xml version="1.0" encoding="utf-8"?>
<!-- Generator: Adobe Illustrator 28.4.1, SVG Export Plug-In . SVG Version: 6.00 Build 0)  -->
<svg version="1.1" id="Capa_1" xmlns="http://www.w3.org/2000/svg" xmlns:xlink="http://www.w3.org/1999/xlink" x="0px" y="0px"
	 viewBox="0 0 1080 1080" style="enable-background:new 0 0 1080 1080;" xml:space="preserve">
<style type="text/css">
	.st0{fill:#A3355E;stroke:#FFFFFF;stroke-width:5;stroke-miterlimit:10;}
	.st1{fill:#A3355E;}
</style>
<path class="st0" d="M992.58,765.11H126.2c-15.59,0-28.23-12.64-28.23-28.23V612.25c0-15.59,12.64-28.23,28.23-28.23h866.39
	c15.59,0,28.23,12.64,28.23,28.23v124.62C1020.82,752.46,1008.18,765.11,992.58,765.11z"/>
<path class="st0" d="M875.85,119.78L88.79,535.75c-7.12,3.76-9.84,12.58-6.08,19.7l10.96,20.73c3.76,7.12,12.58,9.84,19.7,6.08
	l787.05-415.97c7.12-3.76,9.84-12.58,6.08-19.7l-10.96-20.73C891.79,118.74,882.97,116.02,875.85,119.78z"/>
<path class="st1" d="M289.67,799.17h-49.75c-5.17,0-9.35-4.19-9.35-9.35v-58.78c0-5.17,4.19-9.35,9.35-9.35h49.75
	c5.17,0,9.35,4.19,9.35,9.35v58.78C299.02,794.98,294.83,799.17,289.67,799.17z"/>
<path class="st1" d="M886.96,799.83h-49.75c-5.17,0-9.35-4.19-9.35-9.35V756.5c0-5.17,4.19-9.35,9.35-9.35h49.75
	c5.17,0,9.35,4.19,9.35,9.35v33.97C896.32,795.64,892.13,799.83,886.96,799.83z"/>
</svg>
