<?xml version="1.0" encoding="utf-8"?>
<!-- Generator: Adobe Illustrator 28.4.1, SVG Export Plug-In . SVG Version: 6.00 Build 0)  -->
<svg version="1.1" id="Capa_1" xmlns="http://www.w3.org/2000/svg" xmlns:xlink="http://www.w3.org/1999/xlink" x="0px" y="0px"
	 viewBox="0 0 1080 1080" style="enable-background:new 0 0 1080 1080;" xml:space="preserve">
<style type="text/css">
	.st0{fill:#9A355A;}
	.st1{fill:none;stroke:#923557;stroke-width:37;stroke-miterlimit:10;}
</style>
<path class="st0" d="M1023.06,694.03c0-24.13-7.47-42.44-7.47-42.44L896.18,182.63c-10.42-21.65-35.36-26.64-35.36-26.64
	l-622.73-0.34c-30.97,5.75-41.57,32.61-41.57,32.61L77.11,635.69c-8.03,28.83-7.59,35.51-7.59,35.51v121.76
	c11.92,67.68,78.37,75.6,78.37,75.6l782.86,0.74c83.58,0.74,92.49-76.1,92.49-76.1L1023.06,694.03z M967.78,709.12l-838.11-0.31
	c-47.03-7.61-36.18-57.23-36.18-57.23l110.88-461.04c5.02-17.08,33.73-29.7,33.73-29.7h622.73c16.32,0,28.58,25.43,28.58,25.43
	l114.45,470.94C1013.65,698.61,967.78,709.12,967.78,709.12z"/>
<path class="st1" d="M245.87,167.41c-9.67,0-19.12,2.83-27.12,8.19c-7.91,5.3-16.57,12.83-19.12,21.5L88.75,658.15
	c0,0-8.85,40.44,24.04,53.9c5.61,2.3,11.67,3.33,17.74,3.33l823.89,0.31c8.29,0,16.45-2.05,23.66-6.08
	c12.38-6.92,26.99-20.67,21.04-45.83L886.29,199.53c-1.39-5.71-3.81-11.13-7.21-15.95c-5.12-7.27-13.35-16.16-23-16.16H245.87z"/>
</svg>
