<?xml version="1.0" encoding="utf-8"?>
<!-- Generator: Adobe Illustrator 28.4.1, SVG Export Plug-In . SVG Version: 6.00 Build 0)  -->
<svg version="1.1" id="Capa_1" xmlns="http://www.w3.org/2000/svg" xmlns:xlink="http://www.w3.org/1999/xlink" x="0px" y="0px"
	 viewBox="0 0 1080 1080" style="enable-background:new 0 0 1080 1080;" xml:space="preserve">
<style type="text/css">
	.st0{fill:#A3355E;}
	.st1{fill:none;stroke:#FFFFFF;stroke-width:11;stroke-miterlimit:10;}
	.st2{fill:#FFFFFF;stroke:#FFFFFF;stroke-miterlimit:10;}
</style>
<g>
	<path class="st0" d="M38.34,559.4c0-13.27,0-26.55,0-39.82c0-19.29,6.81-29.25,25.03-36.03c15.77-5.87,31.63-11.5,47.45-17.26
		c54.57-19.86,109.12-39.75,163.7-59.56c32.74-11.88,65.57-23.54,98.3-35.45c72.41-26.35,144.78-52.81,217.18-79.19
		c25.73-9.38,51.26-19.42,77.31-27.8c28.94-9.31,57.63-6.5,83.58,9.4c76.1,46.65,151.72,94.08,227.52,141.2
		c15.15,9.42,30.39,18.68,45.42,28.29c10.85,6.93,19.09,15.83,19.18,29.79c0.05,9.25-0.04,18.49-0.05,27.74
		c-0.01,19.54,0,39.08,0,58.61c0,17.88-6.97,28.21-23.84,34.72c-11.53,4.45-23.2,8.56-34.81,12.81
		c-43.3,15.85-86.61,31.68-129.91,47.54c-38.72,14.18-77.43,28.41-116.14,42.61c-17.97,6.59-35.94,13.18-53.92,19.76
		c-46.68,17.09-93.38,34.14-140.05,51.26c-40.26,14.77-80.5,29.56-120.72,44.43c-32.77,12.11-64.48,10.26-94.35-8.22
		c-70.28-43.49-140.33-87.35-210.48-131.06c-20.35-12.68-40.72-25.32-61.05-38.01c-6.53-4.08-12.58-8.88-15.77-16.03
		c-1.95-4.37-3.39-9.33-3.53-14.07c-0.44-15.2-0.16-30.42-0.16-45.63C38.28,559.4,38.31,559.4,38.34,559.4z M66.38,512.5
		c0.01,0.59,0.02,1.17,0.03,1.76c2.33,1.81,4.52,3.84,7.01,5.39c35.47,22.16,70.98,44.24,106.46,66.36
		c32.37,20.18,64.73,40.38,97.1,60.56c22.38,13.96,44.8,27.84,67.13,41.87c15.8,9.92,33.04,14,51.21,10.4
		c11.71-2.32,23.05-6.81,34.35-10.9c44.09-15.97,88.1-32.15,132.12-48.3c43.61-16,87.18-32.09,130.79-48.07
		c69.72-25.55,139.46-51.05,209.2-76.57c34.26-12.54,68.53-25.05,102.77-37.65c3.55-1.31,6.91-3.14,10.35-4.73
		c0.08-0.56,0.16-1.11,0.24-1.67c-5.65-3.73-11.23-7.59-16.98-11.16c-86.92-54.1-173.76-108.34-260.89-162.11
		c-19.49-12.03-41.04-14.09-62.84-6.72c-21.01,7.1-41.71,15.09-62.56,22.66c-94.12,34.2-188.24,68.38-282.36,102.57
		c-29.8,10.83-59.61,21.64-89.41,32.47c-52.33,19.01-104.67,38.01-156.99,57.08C77.47,507.81,71.96,510.24,66.38,512.5z"/>
</g>
<path class="st0" d="M58.05,519.18l288.18,182.26c0,0,26.51,18.25,61,5.59l617.27-235.4L714.41,269L55.75,512.6L58.05,519.18z"/>
<path class="st1" d="M79.21,534.06L314.67,669.8c0,0,57.88,41.65,146.12,7.76l503.06-184.35"/>
<ellipse class="st2" cx="962.78" cy="493.52" rx="5.53" ry="5.04"/>
<ellipse class="st2" cx="79.13" cy="533.99" rx="5.53" ry="5.04"/>
</svg>
