<?xml version="1.0" encoding="utf-8"?>
<!-- Generator: Adobe Illustrator 28.4.1, SVG Export Plug-In . SVG Version: 6.00 Build 0)  -->
<svg version="1.1" id="Capa_1" xmlns="http://www.w3.org/2000/svg" xmlns:xlink="http://www.w3.org/1999/xlink" x="0px" y="0px"
	 viewBox="0 0 1080 1080" style="enable-background:new 0 0 1080 1080;" xml:space="preserve">
<style type="text/css">
	.st0{fill:#A3355E;}
	.st1{fill:#FFFFFF;stroke:#FFFFFF;stroke-width:18;stroke-miterlimit:10;}
</style>
<path class="st0" d="M903.19,50.82H193.13c-33.54,0-60.73,27.19-60.73,60.73v772.93c0,33.54,27.19,60.73,60.73,60.73h710.06
	c33.54,0,60.73-27.19,60.73-60.73V111.56C963.93,78.01,936.73,50.82,903.19,50.82z M864.75,811.11c0,27.35-22.17,49.53-49.53,49.53
	H272.75c-27.35,0-49.53-22.17-49.53-49.53V527.45c0-27.35,22.17-49.53,49.53-49.53h542.48c27.35,0,49.53,22.17,49.53,49.53V811.11z"
	/>
<path class="st0" d="M834.4,980.62H721.36c-5.17,0-9.35-4.19-9.35-9.35v-33.97c0-5.17,4.19-9.35,9.35-9.35H834.4
	c5.17,0,9.35,4.19,9.35,9.35v33.97C843.75,976.43,839.56,980.62,834.4,980.62z"/>
<path class="st0" d="M367.1,981.33H254.07c-5.17,0-9.35-4.19-9.35-9.35V938c0-5.17,4.19-9.35,9.35-9.35H367.1
	c5.17,0,9.35,4.19,9.35,9.35v33.97C376.46,977.14,372.27,981.33,367.1,981.33z"/>
<path class="st1" d="M665.31,312.1H421.93c-9.66,0-17.5-7.83-17.5-17.5v0c0-9.66,7.83-17.5,17.5-17.5h243.38
	c9.66,0,17.5,7.84,17.5,17.5v0C682.81,304.27,674.97,312.1,665.31,312.1z"/>
</svg>
