<?xml version="1.0" encoding="utf-8"?>
<!-- Generator: Adobe Illustrator 28.4.1, SVG Export Plug-In . SVG Version: 6.00 Build 0)  -->
<svg version="1.1" id="Capa_1" xmlns="http://www.w3.org/2000/svg" xmlns:xlink="http://www.w3.org/1999/xlink" x="0px" y="0px"
	 viewBox="0 0 1080 1080" style="enable-background:new 0 0 1080 1080;" xml:space="preserve">
<style type="text/css">
	.st0{fill:#A3355E;}
	.st1{fill:#FFFFFF;}
	.st2{fill:#A3355E;stroke:#9A355A;stroke-width:4;stroke-miterlimit:10;}
	.st3{fill:#9A355A;stroke:#923557;stroke-width:4;stroke-miterlimit:10;}
	.st4{fill:#923557;stroke:#923557;stroke-width:4;stroke-miterlimit:10;}
	.st5{fill:#FFFFFF;stroke:#FFFFFF;stroke-miterlimit:10;}
</style>
<path class="st0" d="M725.49,261.97l244.52-158.68c14.33-9.3,34.21,0.03,34.21,16.05v752.38c0,6.93-4,13.35-10.53,16.91
	L749.17,1021.8c-14.43,7.86-32.76-1.61-32.76-16.91V278.02C716.41,271.65,719.8,265.67,725.49,261.97z"/>
<path class="st0" d="M733.18,1030.07H136.8c-11.23,0-20.33-9.1-20.33-20.33V297.86c0-11.23,9.1-20.33,20.33-20.33h596.38
	c11.23,0,20.33,9.1,20.33,20.33v711.88C753.51,1020.97,744.41,1030.07,733.18,1030.07z"/>
<circle class="st1" cx="419.8" cy="448.14" r="34.89"/>
<path class="st1" d="M637.72,970.7H200.87c-10.2,0-18.47-8.27-18.47-18.47V581.05c0-10.2,8.27-18.47,18.47-18.47h436.85
	c10.2,0,18.47,8.27,18.47,18.47v371.18C656.19,962.43,647.92,970.7,637.72,970.7z"/>
<line class="st2" x1="380.02" y1="560.19" x2="379.95" y2="875.9"/>
<line class="st3" x1="380.03" y1="875.83" x2="184.24" y2="962.52"/>
<line class="st4" x1="379.56" y1="876.15" x2="657.44" y2="876.15"/>
<path class="st0" d="M141.29,270.54l235.39-168.11c2.24-1.6,4.9-2.46,7.61-2.46h605.14c13.07,0,18.43,17.39,7.79,25.26
	L769.77,293.34c-2.27,1.68-5,2.58-7.79,2.58H148.9C135.73,295.92,130.44,278.29,141.29,270.54z"/>
<path class="st0" d="M164.84,253.69c0,0-36.73,24.37-39.4,31.72c-2.67,7.35,13.36,3,13.36,3s18.7-15.02,19.7-16.03
	s13.36-18.03,13.36-18.03L164.84,253.69z"/>
<path class="st0" d="M754.22,1018.95c0,0-16.65,9.39-20.66,9.64c-4.01,0.25,4.88-14.65,4.88-14.65s7.89-4.88,8.51-5.01
	s7.51,4.76,7.51,4.76L754.22,1018.95z"/>
<path class="st5" d="M735.75,310.53H186.69c-2.27,0-4.12-1.84-4.12-4.12v-3.45c0-2.27,1.84-4.12,4.12-4.12h549.06
	c2.27,0,4.12,1.84,4.12,4.12v3.45C739.87,308.69,738.02,310.53,735.75,310.53z"/>
<path class="st5" d="M741.45,969.2h-3.99c-2.63,0-4.76-2.13-4.76-4.76V303.61c0-2.63,2.13-4.76,4.76-4.76h3.99
	c2.63,0,4.76,2.13,4.76,4.76v660.83C746.21,967.06,744.08,969.2,741.45,969.2z"/>
<path class="st5" d="M944.67,141.87L738.78,298.86c-1.87,1.43-2.23,4.1-0.81,5.98l2.17,2.84c1.43,1.87,4.1,2.23,5.98,0.81
	L952,151.49c1.87-1.43,2.23-4.1,0.81-5.98l-2.17-2.84C949.21,140.8,946.54,140.44,944.67,141.87z"/>
</svg>
